<?xml version="1.0" encoding="utf-8"?>
<!-- Generator: Adobe Illustrator 25.2.3, SVG Export Plug-In . SVG Version: 6.00 Build 0)  -->
<svg version="1.1" id="Layer_1" xmlns="http://www.w3.org/2000/svg" xmlns:xlink="http://www.w3.org/1999/xlink" x="0px" y="0px"
	 viewBox="0 0 60 40" style="enable-background:new 0 0 60 40;" xml:space="preserve">
<style type="text/css">
	.st0{display:none;}
	.st1{display:inline;}
	.st2{fill:#E8E8E8;}
	.st3{display:inline;fill:#E8E8E8;}
	.st4{font-family:'Roboto-Bold';}
	.st5{font-size:4.2669px;}
	.st6{display:inline;fill:#FFFAD9;}
	.st7{fill:#FFB300;}
	.st8{display:inline;fill:#FFB300;}
	.st9{font-family:'Montserrat-SemiBold';}
	.st10{font-size:4.397px;}
	.st11{letter-spacing:1;}
	.st12{display:none;fill:none;stroke:#E8E8E8;stroke-width:0.4822;stroke-miterlimit:10;}
	.st13{display:none;fill:none;stroke:#E8E8E8;stroke-width:0.4813;stroke-miterlimit:10;}
</style>
<g class="st0">
	<g class="st1">
		<path class="st2" d="M17.01,13.72c1.28,0,2.33,1.04,2.33,2.33v7.37c0,1.07-0.72,1.97-1.71,2.24l-6.06,2.51
			c-0.04,0.02-0.08,0.02-0.12,0.02c-0.09,0-0.18-0.04-0.24-0.11c-0.09-0.1-0.11-0.25-0.04-0.37c0.27-0.51,0.66-1.22,1.07-1.97H9.64
			c-1.28,0-2.33-1.04-2.33-2.33v-7.37c0-1.28,1.04-2.33,2.33-2.33H17.01 M17.01,11.3H9.64c-2.62,0-4.75,2.13-4.75,4.75v7.37
			c0,2.3,1.64,4.22,3.81,4.65c0.04,0.59,0.28,1.17,0.69,1.63l0,0l0,0c0.52,0.57,1.26,0.9,2.04,0.9c0.36,0,0.72-0.07,1.05-0.21
			l5.95-2.47c1.96-0.62,3.32-2.45,3.32-4.52v-7.37C21.75,13.43,19.63,11.3,17.01,11.3L17.01,11.3z"/>
	</g>
	<path class="st3" d="M14.14,22.83h-1.97c-1.2,0-2.18-0.98-2.18-2.18v-1.97c0-1.2,0.98-2.18,2.18-2.18h1.97
		c1.2,0,2.18,0.98,2.18,2.18v1.97C16.32,21.85,15.34,22.83,14.14,22.83z"/>
	<g>
		<path class="st3" d="M32.43,26.75c-0.13,0.23-0.36,0.35-0.69,0.35c-0.35,0-0.53-0.19-0.53-0.58v-2.39h-0.99v2.42
			c0,0.44,0.11,0.77,0.32,1c0.21,0.23,0.51,0.34,0.91,0.34c0.43,0,0.77-0.15,1.01-0.44l0.03,0.38h0.93v-3.7h-0.99V26.75z"/>
		<path class="st3" d="M36.69,19.63c-0.15,0.24-0.22,0.56-0.2,0.96c0,0.19,0.05,0.33,0.13,0.44c0.08,0.11,0.2,0.16,0.35,0.17
			c0.25,0.01,0.45-0.11,0.6-0.35s0.21-0.56,0.2-0.95c-0.01-0.19-0.05-0.34-0.14-0.45c-0.08-0.11-0.2-0.17-0.36-0.17
			C37.04,19.28,36.84,19.39,36.69,19.63z"/>
		<path class="st3" d="M44.81,20.67c-0.05,0.06-0.08,0.14-0.09,0.24c-0.02,0.11,0.01,0.19,0.07,0.25s0.14,0.09,0.24,0.1
			c0.24,0.01,0.45-0.1,0.62-0.31l0.1-0.55l-0.29,0C45.17,20.39,44.95,20.49,44.81,20.67z"/>
		<path class="st3" d="M32.33,19.29c-0.25-0.01-0.44,0.11-0.59,0.35s-0.22,0.56-0.2,0.96c0,0.19,0.05,0.33,0.13,0.44
			c0.08,0.11,0.2,0.16,0.35,0.17c0.25,0.01,0.45-0.11,0.6-0.35s0.21-0.56,0.2-0.95c-0.01-0.19-0.05-0.34-0.14-0.45
			C32.61,19.35,32.49,19.29,32.33,19.29z"/>
		<path class="st3" d="M25.78,19.62c0.23,0,0.42-0.06,0.57-0.18s0.24-0.28,0.27-0.48s0-0.37-0.1-0.49s-0.23-0.19-0.42-0.19l-0.8,0h0
			l-0.23,1.34l0.24,0L25.78,19.62z"/>
		<path class="st3" d="M40.49,19.29c-0.21-0.01-0.39,0.08-0.54,0.26c-0.15,0.18-0.24,0.41-0.28,0.7c-0.01,0.14-0.02,0.26-0.02,0.35
			c0,0.18,0.04,0.33,0.12,0.44c0.08,0.11,0.19,0.17,0.34,0.17c0.22,0.01,0.42-0.09,0.6-0.29l0.25-1.34
			C40.87,19.39,40.72,19.3,40.49,19.29z"/>
		<path class="st3" d="M57.63,23.6v-7.19H39.48c-0.06-0.11-0.11-0.23-0.13-0.37h2.35v-0.4c0-0.59-0.15-1.04-0.44-1.36
			c-0.29-0.32-0.69-0.48-1.19-0.48c-0.34,0-0.64,0.08-0.9,0.24c-0.26,0.16-0.47,0.38-0.61,0.68c-0.14,0.29-0.22,0.62-0.22,1v0.1
			c0,0.22,0.03,0.42,0.09,0.6h-0.54v-1.23c0-0.46-0.1-0.8-0.29-1.03s-0.48-0.35-0.88-0.35c-0.44,0-0.8,0.17-1.06,0.5l-0.03-0.43
			H34.7v2.54h-0.52c0.06-0.2,0.09-0.42,0.09-0.66l-0.01-0.25c-0.04-0.52-0.21-0.94-0.53-1.24c-0.32-0.31-0.72-0.46-1.22-0.46
			c-0.35,0-0.66,0.08-0.92,0.24c-0.27,0.16-0.47,0.38-0.61,0.67s-0.21,0.61-0.21,0.98v0.04c0,0.25,0.04,0.48,0.09,0.68h-1.22v-1.26
			c0.12-0.25,0.36-0.38,0.73-0.38c0.1,0,0.22,0.01,0.36,0.03l0.01-0.95c-0.1-0.03-0.2-0.04-0.31-0.04c-0.35,0-0.63,0.17-0.82,0.51
			l-0.03-0.44h-0.93v2.54h-0.8c0.18-0.36,0.28-0.76,0.28-1.22v-0.23c0-0.46-0.1-0.88-0.29-1.24c-0.19-0.36-0.46-0.64-0.81-0.84
			c-0.34-0.2-0.74-0.3-1.17-0.3h-1.53v4.98h0.97v0l0.75,0c0.46,0,0.82,0.13,1.09,0.38s0.38,0.59,0.35,1c-0.03,0.42-0.21,0.75-0.52,1
			s-0.72,0.38-1.21,0.38l-0.45,0v2.63c-0.09,0.04-0.19,0.07-0.27,0.12c-0.31,0.2-0.55,0.47-0.72,0.84s-0.25,0.79-0.25,1.26v0.3
			c0,0.75,0.18,1.34,0.55,1.77c0.37,0.43,0.87,0.64,1.51,0.64c0.58,0,1.05-0.15,1.41-0.46c0.36-0.31,0.55-0.73,0.59-1.26h-1.03
			c-0.02,0.3-0.11,0.53-0.27,0.67c-0.16,0.15-0.39,0.22-0.71,0.22c-0.35,0-0.61-0.12-0.77-0.37c-0.16-0.25-0.24-0.64-0.24-1.18
			v-0.38c0-0.52,0.09-0.9,0.26-1.14c0.17-0.24,0.43-0.37,0.77-0.37c0.31,0,0.55,0.07,0.7,0.22c0.15,0.15,0.24,0.38,0.27,0.7h1.03
			c-0.04-0.38-0.17-0.68-0.35-0.94h0.84v4.23h0.99V23.6h4.41v4.23h0.89l0.04-0.39c0.24,0.31,0.56,0.46,0.96,0.46
			c0.45,0,0.81-0.17,1.06-0.5c0.25-0.33,0.38-0.79,0.38-1.39v-0.05c0-0.6-0.13-1.07-0.38-1.4c-0.26-0.33-0.61-0.5-1.06-0.5
			c-0.37,0-0.67,0.13-0.9,0.4V23.6H57.63z M39.59,14.79c0.12-0.13,0.28-0.2,0.48-0.2c0.21,0,0.37,0.06,0.49,0.18
			s0.17,0.29,0.18,0.51v0.08h-1.37C39.39,15.12,39.47,14.93,39.59,14.79z M35.64,24.87c0.23,0,0.41,0.09,0.53,0.26
			c0.12,0.17,0.18,0.44,0.18,0.82c0,0.31-0.02,0.54-0.07,0.69c-0.1,0.31-0.31,0.47-0.63,0.47c-0.32,0-0.54-0.13-0.66-0.39v-1.46
			C35.11,25,35.33,24.87,35.64,24.87z M53.05,22.41l0.11,0.01c0.27,0.01,0.47-0.09,0.59-0.3l0.18-0.34l-0.52-3.13h0.86l0.23,1.96
			l0.91-1.96h0.92l-1.85,3.65c-0.13,0.28-0.29,0.48-0.47,0.62s-0.39,0.2-0.62,0.2c-0.09,0-0.22-0.02-0.4-0.06L53.05,22.41z
			 M50.77,17.33h0.83l-0.33,1.68c0.25-0.28,0.53-0.41,0.86-0.41c0.31,0.01,0.55,0.12,0.69,0.34s0.2,0.52,0.17,0.89l-0.33,2h-0.83
			l0.34-2.01c0.01-0.08,0.01-0.15,0.01-0.21c-0.02-0.21-0.14-0.32-0.37-0.33c-0.22-0.01-0.42,0.09-0.59,0.29l-0.4,2.26h-0.83
			L50.77,17.33z M48.15,18.66l-0.06,0.32c0.23-0.26,0.5-0.38,0.81-0.38s0.55,0.12,0.72,0.34s0.26,0.51,0.28,0.89
			c0,0.12,0,0.26-0.02,0.43c-0.04,0.33-0.13,0.63-0.26,0.88s-0.3,0.45-0.5,0.57s-0.42,0.18-0.66,0.18
			c-0.31-0.01-0.55-0.12-0.73-0.34l-0.29,1.5h-0.83l0.76-4.39L48.15,18.66z M44.61,18.88c0.26-0.19,0.59-0.28,0.98-0.28
			c0.36,0.01,0.64,0.11,0.84,0.32s0.29,0.47,0.25,0.8l-0.24,1.52l-0.01,0.19c0,0.14,0.01,0.26,0.05,0.35l0,0.06h-0.81
			c-0.03-0.08-0.04-0.18-0.03-0.29c-0.24,0.24-0.51,0.35-0.81,0.35c-0.28,0-0.51-0.09-0.69-0.27s-0.27-0.4-0.26-0.65
			c0.01-0.35,0.16-0.61,0.44-0.8s0.65-0.28,1.11-0.28l0.39,0.01l0.04-0.19c0.01-0.06,0.01-0.13,0.01-0.18
			c-0.01-0.09-0.04-0.16-0.1-0.22s-0.14-0.08-0.24-0.08c-0.13,0-0.24,0.03-0.33,0.1s-0.15,0.16-0.17,0.29l-0.83,0
			C44.21,19.31,44.35,19.07,44.61,18.88z M43.23,18.66l-0.08,0.39c0.2-0.3,0.45-0.45,0.74-0.45c0.08,0,0.18,0.01,0.29,0.04
			l-0.11,0.82c-0.11-0.02-0.21-0.03-0.28-0.03c-0.29-0.01-0.53,0.1-0.7,0.33l-0.37,2.07h-0.83l0.55-3.17L43.23,18.66z M41.42,21.72
			c-0.06,0.42-0.24,0.76-0.54,1s-0.68,0.37-1.12,0.36c-0.22,0-0.43-0.05-0.63-0.14s-0.36-0.22-0.49-0.37l0.41-0.5
			c0.18,0.23,0.41,0.35,0.69,0.36c0.21,0.01,0.4-0.05,0.55-0.17s0.26-0.29,0.31-0.51l0.05-0.19c-0.23,0.23-0.49,0.34-0.78,0.33
			c-0.31,0-0.55-0.12-0.74-0.34s-0.28-0.52-0.3-0.88c-0.01-0.12,0-0.26,0.01-0.42c0.06-0.49,0.22-0.89,0.48-1.19
			s0.59-0.46,0.99-0.45c0.34,0.01,0.59,0.13,0.76,0.37l0.11-0.31l0.76,0L41.42,21.72z M38.49,19.4c0.09,0.25,0.13,0.52,0.1,0.82
			c-0.04,0.5-0.22,0.91-0.53,1.22s-0.68,0.46-1.13,0.46c-0.28,0-0.51-0.07-0.71-0.21s-0.35-0.33-0.45-0.57s-0.13-0.51-0.1-0.81
			c0.05-0.52,0.23-0.94,0.53-1.25s0.68-0.46,1.12-0.45c0.28,0,0.52,0.08,0.72,0.22S38.4,19.15,38.49,19.4z M35.69,14.96
			c0.14-0.24,0.35-0.36,0.63-0.36c0.21,0,0.36,0.05,0.45,0.14c0.09,0.09,0.14,0.25,0.14,0.46v1.21h-1.22V14.96z M31.76,15.75
			c0-0.4,0.07-0.69,0.2-0.88c0.13-0.19,0.32-0.28,0.56-0.28c0.24,0,0.43,0.09,0.57,0.28s0.2,0.46,0.2,0.8
			c0,0.32-0.05,0.55-0.14,0.73h-1.26C31.81,16.23,31.76,16.03,31.76,15.75z M25.36,13.42h0.51c0.4,0,0.71,0.13,0.92,0.39
			c0.21,0.26,0.31,0.64,0.31,1.15v0.26c0,0.49-0.11,0.86-0.32,1.12s-0.52,0.39-0.92,0.39h-0.5V13.42z M30.05,21.83h-0.83l0.34-2.01
			c0.01-0.08,0.01-0.15,0.01-0.21c-0.02-0.21-0.14-0.32-0.37-0.33c-0.22-0.01-0.42,0.09-0.59,0.29l-0.4,2.26h-0.83l0.78-4.5H29
			l-0.33,1.68c0.25-0.28,0.53-0.41,0.86-0.41c0.31,0.01,0.55,0.12,0.69,0.34s0.2,0.52,0.17,0.89L30.05,21.83z M33.12,21.43
			c-0.31,0.31-0.68,0.46-1.13,0.46c-0.28,0-0.51-0.07-0.71-0.21s-0.35-0.33-0.45-0.57s-0.13-0.51-0.1-0.81
			c0.05-0.52,0.23-0.94,0.53-1.25s0.68-0.46,1.12-0.45c0.28,0,0.52,0.08,0.72,0.22s0.35,0.33,0.45,0.58s0.13,0.52,0.1,0.82
			C33.6,20.71,33.42,21.12,33.12,21.43z M34,18.66h0.45l0.13-0.78h0.83l-0.14,0.78h0.53l-0.11,0.62h-0.53l-0.27,1.59
			c-0.01,0.1,0,0.18,0.02,0.23s0.09,0.08,0.2,0.08c0.03,0,0.12,0,0.25-0.01l-0.06,0.65c-0.15,0.05-0.3,0.07-0.47,0.07
			c-0.27,0-0.47-0.09-0.61-0.25s-0.19-0.39-0.16-0.67l0.27-1.67H33.9L34,18.66z"/>
		<path class="st3" d="M48.29,21.21c0.2,0.01,0.37-0.07,0.5-0.23c0.13-0.16,0.22-0.42,0.28-0.78l0.02-0.28
			c0-0.19-0.03-0.34-0.1-0.45c-0.07-0.11-0.18-0.17-0.32-0.17c-0.24-0.01-0.44,0.09-0.59,0.31l-0.24,1.31
			C47.9,21.1,48.06,21.2,48.29,21.21z"/>
	</g>
</g>
<text transform="matrix(1 0 0 1 12.1307 23.4672)" class="st0"><tspan x="0" y="0" class="st3 st4 st5">drone</tspan><tspan x="10.58" y="0" class="st6 st4 st5">photo</tspan><tspan x="21.15" y="0" class="st3 st4 st5">club.com</tspan></text>
<g class="st0">
	<g class="st1">
		<path class="st7" d="M33.68,13.72c1.28,0,2.33,1.04,2.33,2.33v7.37c0,1.07-0.72,1.97-1.71,2.24l-6.06,2.51
			c-0.04,0.02-0.08,0.02-0.12,0.02c-0.09,0-0.18-0.04-0.24-0.11c-0.09-0.1-0.11-0.25-0.04-0.37c0.27-0.51,0.66-1.22,1.07-1.97h-2.58
			c-1.28,0-2.33-1.04-2.33-2.33v-7.37c0-1.28,1.04-2.33,2.33-2.33H33.68 M33.68,11.3h-7.37c-2.62,0-4.75,2.13-4.75,4.75v7.37
			c0,2.3,1.64,4.22,3.81,4.65c0.04,0.59,0.28,1.17,0.69,1.63l0,0l0,0c0.52,0.57,1.26,0.9,2.04,0.9c0.36,0,0.72-0.07,1.05-0.21
			l5.95-2.47c1.96-0.62,3.32-2.45,3.32-4.52v-7.37C38.43,13.43,36.3,11.3,33.68,11.3L33.68,11.3z"/>
	</g>
	<path class="st8" d="M30.81,22.83h-1.97c-1.2,0-2.18-0.98-2.18-2.18v-1.97c0-1.2,0.98-2.18,2.18-2.18h1.97
		c1.2,0,2.18,0.98,2.18,2.18v1.97C32.99,21.85,32.02,22.83,30.81,22.83z"/>
</g>
<g>
	<g>
		<text transform="matrix(1 0 0 1 26.3581 15.4731)"><tspan x="0" y="0" class="st2 st9 st10 st11">DRONE</tspan><tspan x="0" y="5.28" class="st2 st9 st10 st11">PHOTO</tspan><tspan x="0" y="10.55" class="st2 st9 st10 st11">CLUB</tspan></text>
	</g>
	<rect x="20.56" y="11.56" class="st2" width="0.48" height="15.79"/>
	<g>
		<path class="st2" d="M15.05,18.93l-9.74-5.22c-0.56-0.3-1.01-0.03-1.01,0.61L4.28,24.6c0,0.63,0.45,0.91,1.01,0.61l9.75-5.19
			C15.61,19.72,15.61,19.23,15.05,18.93z"/>
	</g>
</g>
<polyline class="st12" points="10.7,32.38 3.4,32.38 3.4,5.85 28.29,5.85 "/>
<polyline class="st13" points="48.77,6.46 56.79,6.46 56.79,32.89 26.36,32.89 "/>
<g>
	<g>
		<g>
			<path class="st2" d="M48.3,10.89l-0.21-0.37h-0.03h-0.27v0.37H47.5v-1.3h0.56c0.34,0,0.53,0.16,0.53,0.45
				c0,0.2-0.09,0.34-0.24,0.42l0.28,0.43H48.3z M47.79,10.28h0.27c0.16,0,0.25-0.07,0.25-0.22c0-0.14-0.09-0.22-0.25-0.22h-0.27
				V10.28z"/>
		</g>
		<path class="st2" d="M48,11.62c-0.75,0-1.36-0.61-1.36-1.36S47.26,8.91,48,8.91s1.36,0.61,1.36,1.36S48.75,11.62,48,11.62z
			 M48,9.24c-0.57,0-1.03,0.46-1.03,1.03S47.44,11.3,48,11.3s1.03-0.46,1.03-1.03S48.57,9.24,48,9.24z"/>
	</g>
</g>
</svg>
