<?xml version="1.0" encoding="utf-8"?>
<!-- Generator: Adobe Illustrator 25.2.3, SVG Export Plug-In . SVG Version: 6.00 Build 0)  -->
<svg version="1.1" id="Layer_1" xmlns="http://www.w3.org/2000/svg" xmlns:xlink="http://www.w3.org/1999/xlink" x="0px" y="0px"
	 viewBox="0 0 60 60" style="enable-background:new 0 0 60 60;" xml:space="preserve">
<style type="text/css">
	.st0{display:none;}
	.st1{display:inline;}
	.st2{fill:#1C1C1C;}
	.st3{display:none;fill:#1C1C1C;}
	.st4{fill-rule:evenodd;clip-rule:evenodd;fill:#1C1C1C;}
</style>
<g class="st0">
	<g class="st1">
		<path class="st2" d="M39.78,6.9H19.05c-7.03,0-12.74,5.7-12.74,12.74v20.73c0,7.03,5.7,12.74,12.74,12.74h20.73
			c7.03,0,12.74-5.7,12.74-12.74V19.64C52.51,12.6,46.81,6.9,39.78,6.9z M48.78,40.31c0,5-4.05,9.06-9.06,9.06H19.1
			c-5,0-9.06-4.05-9.06-9.06V19.69c0-5,4.05-9.06,9.06-9.06h20.62c5,0,9.06,4.05,9.06,9.06V40.31z"/>
		<path class="st2" d="M29.41,17.82c-6.72,0-12.17,5.45-12.17,12.18c0,6.72,5.45,12.17,12.17,12.17c6.72,0,12.18-5.45,12.18-12.17
			C41.59,23.28,36.14,17.82,29.41,17.82z M29.41,37.94c-4.39,0-7.94-3.56-7.94-7.94c0-4.39,3.56-7.94,7.94-7.94s7.94,3.56,7.94,7.94
			C37.36,34.39,33.8,37.94,29.41,37.94z"/>
		<path class="st2" d="M44.73,17.42c0,1.51-1.22,2.73-2.73,2.73c-1.51,0-2.73-1.22-2.73-2.73c0-1.51,1.22-2.73,2.73-2.73
			C43.51,14.69,44.73,15.91,44.73,17.42z"/>
	</g>
</g>
<path class="st3" d="M39.58,31.19h-6.74v21.71h-10V31.19h-4.76v-8.5h4.76v-5.5c0-3.93,1.87-10.09,10.09-10.09l7.41,0.03v8.25h-5.37
	c-0.88,0-2.12,0.44-2.12,2.32v5h7.62L39.58,31.19z M40.75,31.44"/>
<g>
	<g>
		<g>
			<path class="st4" d="M52.3,22.5c0-3.68-2.98-6.67-6.67-6.67H14.37c-3.68,0-6.67,2.98-6.67,6.67v17.88c0,3.68,2.98,6.67,6.67,6.67
				h31.27c3.68,0,6.67-2.99,6.67-6.67V22.5z M25.54,38.99v-16.8l12.74,8.4L25.54,38.99z M25.54,38.99"/>
		</g>
	</g>
</g>
</svg>
